<?xml version="1.0" encoding="UTF-8"?>
<svg xmlns="http://www.w3.org/2000/svg" viewBox="0 0 72 72" role="img" aria-label="castalia / judy-torso" data-pua="U+F1525" data-castalia-style="sumi-e-naturalist-v2" data-ink-stroke-system="filled-brush-mass-v2" data-ink-animation="wash-v1" data-ink-path-units="normalized">
<title>castalia / judy-torso — recognizable sumi-e story study</title><g transform="translate(0 0) translate(36 36) scale(0.82) translate(-36 -36)"><path class="ink-wash" fill="#4a4943" d="M 24 20 C 28 12 42 11 48 19 C 53 26 50 38 43 42 C 34 47 22 40 20 31 C 19 26 21 22 24 20 Z" data-ink-brush-pass="loaded-mass-v2"/><path class="ink-wash" fill="#262522" d="M 24 24 L 10 29 L 24 33 Z" data-ink-brush-pass="loaded-mass-v2"/><path class="ink-wash" fill="#262522" d="M 23 20 C 28 9 44 8 50 18 C 42 15 32 16 23 20 Z" data-ink-brush-pass="loaded-mass-v2"/><ellipse class="ink-dry" cx="29" cy="24" rx="1.4" ry="1.4" fill="#f3f0e6" data-ink-brush-pass="loaded-dab-v1"/><path class="ink-dry" fill="#77746a" d="M 23 42 C 31 38 43 39 49 44 L 54 61 L 18 61 Z" data-ink-brush-pass="loaded-mass-v2"/><path class="ink-dry" fill="none" stroke="#262522" stroke-width="1.8" stroke-linecap="round" stroke-linejoin="round" d="M 27 49 C 34 53 41 52 47 48" data-ink-brush-pass="dry-contour-v2"/><path class="ink-dry" fill="none" stroke="#77746a" stroke-width="1.2" stroke-linecap="round" stroke-linejoin="round" d="M 8 62 C 24 59 43 63 65 59" data-ink-brush-pass="dry-contour-v2"/></g></svg>
